<?xml version="1.0" encoding="UTF-8" standalone="no"?>
<svg
   width="64.5617mm"
   height="33.3392mm"
   viewBox="0 0 366 189"
   version="1.1"
   id="svg31"
   sodipodi:docname="co4.svg"
   inkscape:version="1.2.1 (9c6d41e410, 2022-07-14)"
   xmlns:inkscape="http://www.inkscape.org/namespaces/inkscape"
   xmlns:sodipodi="http://sodipodi.sourceforge.net/DTD/sodipodi-0.dtd"
   xmlns="http://www.w3.org/2000/svg"
   xmlns:svg="http://www.w3.org/2000/svg">
  <defs
     id="defs35" />
  <sodipodi:namedview
     id="namedview33"
     pagecolor="#ffffff"
     bordercolor="#000000"
     borderopacity="0.25"
     inkscape:showpageshadow="2"
     inkscape:pageopacity="0.0"
     inkscape:pagecheckerboard="0"
     inkscape:deskcolor="#d1d1d1"
     inkscape:document-units="mm"
     showgrid="false"
     inkscape:zoom="4.9423653"
     inkscape:cx="122.00636"
     inkscape:cy="62.925337"
     inkscape:window-width="1920"
     inkscape:window-height="1009"
     inkscape:window-x="1912"
     inkscape:window-y="-8"
     inkscape:window-maximized="1"
     inkscape:current-layer="svg31" />
  <path
     id="Auswahl"
     fill="none"
     stroke="#000000"
     stroke-width="1"
     d="m 176,27.21 c 0,0 19,0 19,0 0,0 11,0.71 11,0.71 24.29,1.94 48.89,8.66 69,22.8 14.76,10.39 27.42,27.23 24.7,46.28 -2.45,17.18 -14.57,30.06 -28.7,39.05 -26.22,16.69 -58.48,21.3 -89,20.95 0,0 -9,-0.83 -9,-0.83 -26.41,-2.64 -54.16,-9.12 -75,-26.61 C 77.1,112.02 70.82,87.78 87.76,65 101.99,45.86 130.26,35 153,30.45 c 0,0 23,-3.24 23,-3.24 z M 181,63 c -2.96,-8.93 -14.1,-6.27 -16.26,2 -1.78,6.78 3.8,14.63 11.24,12.07 3.28,-1.12 4.46,-3.25 6.02,-6.07 -4.98,0.69 -7.01,3.16 -9.9,2.3 -4.58,-1.38 -5.13,-8.85 -0.87,-11.26 2.67,-1.52 6.88,0.34 9.77,0.96 z m 13,-5.51 c -14.5,2.22 -10.25,21.87 2,19.89 10.49,-1.7 11.99,-18.72 -2,-19.89 z M 210,66 c 1.33,-1.58 3.38,-3.53 3.39,-5.77 0.02,-2.49 -4.18,-4.56 -5.39,0.77 0,0 4,-2 4,-2 0,0 -5,9 -5,9 0,0 7,0 7,0 0,0 0,-2 0,-2 0,0 -4,0 -4,0 z m -18.72,-3.98 c 10.78,-3.87 11.81,10.04 4.67,11.65 -6.35,1.43 -10.41,-6.1 -4.67,-11.65 z M 142,93 c 0,0 -14,0 -14,0 0,0 0,21 0,21 0,0 4,0 4,0 0,0 0,-9 0,-9 0,0 9,0 9,0 0,0 0,-4 0,-4 0,0 -9,0 -9,0 0,0 0,-4 0,-4 0,0 10,0 10,0 0,0 0,-4 0,-4 z m 80,0 c 0,0 -3,0 -3,0 0,0 0,3 0,3 0,0 3,0 3,0 0,0 0,-3 0,-3 z m -37,1 c -7.9,2.96 -4.75,6.33 -4.13,11.04 0.28,2.07 0.03,4.72 1.3,6.51 2.01,2.83 4.23,1.67 5.83,-0.55 -3.93,-2.63 -3,-5.62 -3,-10 0,0 3,0 3,0 0,0 0,-3 0,-3 0,0 -3,-4 -3,-4 z m 63,0 c -6.68,4.33 -3.81,5.65 -3.13,11.04 0.66,5.24 -0.65,6.82 5.13,8.96 0,0 1,-3 1,-3 -3.93,-2.63 -3,-5.62 -3,-10 0,0 3,0 3,0 0,0 0,-3 0,-3 0,0 -3,-4 -3,-4 z m -96,4.53 c -11.15,2.54 -7.21,15.66 1,14.89 7.93,-0.74 10.47,-13.86 -1,-14.89 z m 17.02,0.05 c -11.11,2.97 -6.46,16.05 1.98,14.67 7.53,-1.24 9.12,-13.88 -1.98,-14.67 z M 193,100 c 0,0 -3,-2 -3,-2 0,0 0,22 0,22 0,0 4,0 4,0 0,0 0,-8 0,-8 2.29,1 4.28,2.12 6.77,0.78 4.42,-2.37 4.37,-12.24 -0.88,-13.94 -2.33,-0.75 -4.73,0.37 -6.89,1.16 z m 18,0 c 0,0 -3,-2 -3,-2 0,0 0,16 0,16 0,0 3,0 3,0 0.03,-9 -0.19,-8.76 6,-15 0,0 -6,1 -6,1 z m 11,-2 c 0,0 -3,0 -3,0 0,0 0,16 0,16 0,0 3,0 3,0 0,0 0,-16 0,-16 z m 8,2 c 0,0 -3,-2 -3,-2 0,0 0,16 0,16 0,0 3,0 3,0 0,-2 -0.01,-15.57 5.42,-11.26 2.14,1.71 1.58,8.61 1.58,11.26 0,0 3,0 3,0 0,-8.75 2.5,-18.57 -10,-14 z m -79.69,2.04 c 7.64,-2.31 7.63,6.84 3.47,8.3 -3.8,1.35 -8.07,-3.39 -3.47,-8.3 z m 17.29,0 c 7.15,-2.38 7.76,6.73 3.27,8.3 -4.46,1.57 -6.25,-4.19 -3.27,-8.3 z m 27.98,0 c 6.5,-2.34 5.96,6.21 3.69,7.95 -3.31,2.53 -7.46,-2.66 -3.69,-7.95 z"
     style="fill:#008000"
     inkscape:transform-center-x="3.6428366"
     inkscape:transform-center-y="16.388068" />
</svg>
